# xmcd
#
# Track frame offsets:
#	150
#	13086
#	27290
#	42048
#	55241
#	65191
#	80637
#	95799
#	111039
#	124698
#	142899
#	151235
#	164403
#	177829
#	185600
#
# Disc length: 2700 seconds
#
# Revision: 1
# Processed by: cddbd v1.4PL0 Copyright (c) Steve Scherf et al.
# Submitted via: audiograbber 1.80
#
DISCID=ca0a8a0f
DTITLE=texas renegade  - worried mind
DYEAR=1900
DGENRE=
TTITLE0=always on the run
TTITLE1=worried mind
TTITLE2=johnny
TTITLE3=still got a lot to learn
TTITLE4=while i''m gone
TTITLE5=too damn tired
TTITLE6=remenber to forget
TTITLE7=livin
TTITLE8=four bottles of bud and a lonestar
TTITLE9=tranquilized
TTITLE10=fourteen days
TTITLE11=lonely man's diary
TTITLE12=caged
TTITLE13=no regrets
TTITLE14=my girl
EXTD=
EXTT0=
EXTT1=
EXTT2=
EXTT3=
EXTT4=
EXTT5=
EXTT6=
EXTT7=
EXTT8=
EXTT9=
EXTT10=
EXTT11=
EXTT12=
EXTT13=
EXTT14=
PLAYORDER=
